<svg width="161" height="160" viewBox="0 0 161 160" fill="none" xmlns="http://www.w3.org/2000/svg">
<path d="M97.849 37.49C97.849 36.754 97.271 36 96.538 36H53.553C52.82 36 52.172 36.754 52.172 37.49V41.012H97.848L97.849 37.49Z" fill="#363636"/>
<path d="M98.702 117.809H89.105V107.426H82.147V109.933H63.274C62.737 108.679 61.517 107.785 60.093 107.785H48.059C46.142 107.784 44.5 109.387 44.5 111.311V114.329C44.5 116.253 46.142 117.809 48.059 117.809H60.094C61.605 117.809 62.886 116.913 63.363 115.483H82.148V117.809H72.63C72.097 117.809 71.62 118.246 71.62 118.781V121.953C71.62 122.488 72.098 123.001 72.63 123.001H98.702C99.235 123.001 99.632 122.488 99.632 121.953V118.78C99.632 118.245 99.235 117.809 98.702 117.809Z" fill="#363636"/>
<path d="M105.166 48.39C104.305 45.453 101.599 43.34 98.395 43.34H51.648C47.75 43.34 44.5 46.449 44.5 50.361V97.261C44.5 101.173 47.75 104.382 51.648 104.382H98.395C102.293 104.382 105.521 101.173 105.521 97.261V86.915C111.587 82.711 115.522 75.704 115.522 67.751C115.521 59.672 111.39 52.57 105.166 48.39ZM56.738 98.151C53.479 98.151 50.837 95.501 50.837 92.23C50.837 88.96 53.479 86.308 56.738 86.308C59.997 86.308 62.64 88.96 62.64 92.23C62.64 95.501 59.997 98.151 56.738 98.151ZM62.699 65.546C62.699 66.332 62.064 66.968 61.281 66.968H52.341C51.558 66.968 50.923 66.331 50.923 65.546V51.386C50.923 50.6 51.558 49.963 52.341 49.963H61.28C62.063 49.963 62.698 50.6 62.698 51.386L62.699 65.546ZM92.262 87.858C81.186 87.858 72.205 78.848 72.205 67.735C72.205 56.622 81.185 47.611 92.262 47.611C103.339 47.611 112.32 56.621 112.32 67.735C112.32 78.849 103.339 87.858 92.262 87.858Z" fill="#363636"/>
<path d="M92.262 79.964C98.9932 79.964 104.45 74.4889 104.45 67.735C104.45 60.9811 98.9932 55.506 92.262 55.506C85.5308 55.506 80.074 60.9811 80.074 67.735C80.074 74.4889 85.5308 79.964 92.262 79.964Z" fill="#363636"/>
<path d="M76.062 69.171C76.8545 69.171 77.497 68.5285 77.497 67.736C77.497 66.9435 76.8545 66.301 76.062 66.301C75.2695 66.301 74.627 66.9435 74.627 67.736C74.627 68.5285 75.2695 69.171 76.062 69.171Z" fill="#363636"/>
<path d="M108.463 69.171C109.256 69.171 109.898 68.5285 109.898 67.736C109.898 66.9435 109.256 66.301 108.463 66.301C107.67 66.301 107.028 66.9435 107.028 67.736C107.028 68.5285 107.67 69.171 108.463 69.171Z" fill="#363636"/>
<path d="M83.609 55.429C84.4015 55.429 85.044 54.7865 85.044 53.994C85.044 53.2015 84.4015 52.559 83.609 52.559C82.8165 52.559 82.174 53.2015 82.174 53.994C82.174 54.7865 82.8165 55.429 83.609 55.429Z" fill="#363636"/>
<path d="M100.915 82.912C101.705 82.912 102.345 82.2691 102.345 81.476C102.345 80.6829 101.705 80.04 100.915 80.04C100.125 80.04 99.485 80.6829 99.485 81.476C99.485 82.2691 100.125 82.912 100.915 82.912Z" fill="#363636"/>
<path d="M100.197 55C100.99 55 101.632 54.3575 101.632 53.565C101.632 52.7725 100.99 52.13 100.197 52.13C99.4045 52.13 98.762 52.7725 98.762 53.565C98.762 54.3575 99.4045 55 100.197 55Z" fill="#363636"/>
<path d="M84.328 83.341C85.1205 83.341 85.763 82.6985 85.763 81.906C85.763 81.1135 85.1205 80.471 84.328 80.471C83.5355 80.471 82.893 81.1135 82.893 81.906C82.893 82.6985 83.5355 83.341 84.328 83.341Z" fill="#363636"/>
</svg>
