<svg width="161" height="160" viewBox="0 0 161 160" fill="none" xmlns="http://www.w3.org/2000/svg">
<path d="M125.467 51.0741C126.219 52.5151 126.676 54.1541 126.676 55.8921V76.9941C126.676 81.6101 123.584 85.5211 119.43 86.8941C118.105 90.8811 115.652 94.7481 111.379 97.3261C102.703 102.557 80.255 102.163 80.181 102.163C80.103 102.163 57.668 102.558 48.992 97.3261C44.776 94.7811 42.284 90.9791 40.95 87.0471C36.532 85.8381 33.194 81.7961 33.194 76.9941V55.8931C33.194 54.2051 33.621 52.6111 34.333 51.2001C30.67 52.1091 26.5 53.9181 26.5 57.4341C26.5 63.6771 26.5 83.1211 26.5 87.4171C26.5 97.6681 38.339 111.85 80.157 111.85C121.977 111.85 133.814 97.6681 133.814 87.4171C133.814 83.1211 133.814 63.6771 133.814 57.4341C133.813 53.7501 129.238 51.9401 125.467 51.0741Z" fill="#363636"/>
<path d="M47.061 85.4591H112.584C118.148 85.4591 122.658 80.9461 122.658 75.3821V56.9351C122.658 51.3721 118.148 46.8601 112.584 46.8601H47.061C41.497 46.8601 36.986 51.3711 36.986 56.9351V75.3821C36.986 80.9461 41.497 85.4591 47.061 85.4591ZM110.195 56.4681C111.062 56.4681 111.764 57.1711 111.764 58.0381C111.764 58.9041 111.062 59.6071 110.195 59.6071C109.328 59.6071 108.627 58.9041 108.627 58.0381C108.627 57.1701 109.328 56.4681 110.195 56.4681ZM110.195 60.5071C111.062 60.5071 111.764 61.2101 111.764 62.0751C111.764 62.9421 111.062 63.6441 110.195 63.6441C109.328 63.6441 108.627 62.9421 108.627 62.0751C108.627 61.2101 109.328 60.5071 110.195 60.5071ZM110.195 64.5461C111.062 64.5461 111.764 65.2481 111.764 66.1151C111.764 66.9811 111.062 67.6841 110.195 67.6841C109.328 67.6841 108.627 66.9811 108.627 66.1151C108.627 65.2481 109.328 64.5461 110.195 64.5461ZM110.195 68.3731C111.062 68.3731 111.764 69.0771 111.764 69.9421C111.764 70.8091 111.062 71.5101 110.195 71.5101C109.328 71.5101 108.627 70.8091 108.627 69.9421C108.627 69.0761 109.328 68.3731 110.195 68.3731ZM110.195 72.4121C111.062 72.4121 111.764 73.1141 111.764 73.9811C111.764 74.8461 111.062 75.5491 110.195 75.5491C109.328 75.5491 108.627 74.8451 108.627 73.9811C108.627 73.1141 109.328 72.4121 110.195 72.4121ZM106.156 56.4681C107.023 56.4681 107.724 57.1711 107.724 58.0381C107.724 58.9041 107.023 59.6071 106.156 59.6071C105.291 59.6071 104.588 58.9041 104.588 58.0381C104.588 57.1701 105.291 56.4681 106.156 56.4681ZM106.156 72.4121C107.023 72.4121 107.724 73.1141 107.724 73.9811C107.724 74.8461 107.023 75.5491 106.156 75.5491C105.291 75.5491 104.588 74.8451 104.588 73.9811C104.588 73.1141 105.291 72.4121 106.156 72.4121ZM102.119 56.4681C102.984 56.4681 103.687 57.1711 103.687 58.0381C103.687 58.9041 102.984 59.6071 102.119 59.6071C101.252 59.6071 100.55 58.9041 100.55 58.0381C100.55 57.1701 101.252 56.4681 102.119 56.4681ZM102.119 60.5071C102.984 60.5071 103.687 61.2101 103.687 62.0751C103.687 62.9421 102.984 63.6441 102.119 63.6441C101.252 63.6441 100.55 62.9421 100.55 62.0751C100.55 61.2101 101.252 60.5071 102.119 60.5071ZM102.119 64.5461C102.984 64.5461 103.687 65.2481 103.687 66.1151C103.687 66.9811 102.984 67.6841 102.119 67.6841C101.252 67.6841 100.55 66.9811 100.55 66.1151C100.55 65.2481 101.252 64.5461 102.119 64.5461ZM102.119 68.3731C102.984 68.3731 103.687 69.0771 103.687 69.9421C103.687 70.8091 102.984 71.5101 102.119 71.5101C101.252 71.5101 100.55 70.8091 100.55 69.9421C100.55 69.0761 101.252 68.3731 102.119 68.3731ZM102.119 72.4121C102.984 72.4121 103.687 73.1141 103.687 73.9811C103.687 74.8461 102.984 75.5491 102.119 75.5491C101.252 75.5491 100.55 74.8451 100.55 73.9811C100.55 73.1141 101.252 72.4121 102.119 72.4121ZM94.465 56.4681C95.332 56.4681 96.033 57.1711 96.033 58.0381C96.033 58.9041 95.332 59.6071 94.465 59.6071C93.598 59.6071 92.897 58.9041 92.897 58.0381C92.896 57.1701 93.6 56.4681 94.465 56.4681ZM94.465 64.5461C95.332 64.5461 96.033 65.2481 96.033 66.1151C96.033 66.9811 95.332 67.6841 94.465 67.6841C93.598 67.6841 92.897 66.9811 92.897 66.1151C92.896 65.2481 93.6 64.5461 94.465 64.5461ZM94.465 68.4271C95.332 68.4271 96.033 69.1281 96.033 69.9951C96.033 70.8601 95.332 71.5641 94.465 71.5641C93.598 71.5641 92.897 70.8601 92.897 69.9951C92.896 69.1281 93.6 68.4271 94.465 68.4271ZM94.465 72.4121C95.332 72.4121 96.033 73.1141 96.033 73.9811C96.033 74.8461 95.332 75.5491 94.465 75.5491C93.598 75.5491 92.897 74.8451 92.897 73.9811C92.896 73.1141 93.6 72.4121 94.465 72.4121ZM90.426 56.4681C91.293 56.4681 91.996 57.1711 91.996 58.0381C91.996 58.9041 91.293 59.6071 90.426 59.6071C89.561 59.6071 88.857 58.9041 88.857 58.0381C88.856 57.1701 89.561 56.4681 90.426 56.4681ZM90.426 64.5461C91.293 64.5461 91.996 65.2481 91.996 66.1151C91.996 66.9811 91.293 67.6841 90.426 67.6841C89.561 67.6841 88.857 66.9811 88.857 66.1151C88.856 65.2481 89.561 64.5461 90.426 64.5461ZM90.426 72.4121C91.293 72.4121 91.996 73.1141 91.996 73.9811C91.996 74.8461 91.293 75.5491 90.426 75.5491C89.561 75.5491 88.857 74.8451 88.857 73.9811C88.856 73.1141 89.561 72.4121 90.426 72.4121ZM86.388 56.4681C87.253 56.4681 87.957 57.1711 87.957 58.0381C87.957 58.9041 87.253 59.6071 86.388 59.6071C85.521 59.6071 84.82 58.9041 84.82 58.0381C84.819 57.1701 85.521 56.4681 86.388 56.4681ZM86.388 60.5071C87.253 60.5071 87.957 61.2101 87.957 62.0751C87.957 62.9421 87.253 63.6441 86.388 63.6441C85.521 63.6441 84.82 62.9421 84.82 62.0751C84.819 61.2101 85.521 60.5071 86.388 60.5071ZM86.388 64.5461C87.253 64.5461 87.957 65.2481 87.957 66.1151C87.957 66.9811 87.253 67.6841 86.388 67.6841C85.521 67.6841 84.82 66.9811 84.82 66.1151C84.819 65.2481 85.521 64.5461 86.388 64.5461ZM86.388 72.4121C87.253 72.4121 87.957 73.1141 87.957 73.9811C87.957 74.8461 87.253 75.5491 86.388 75.5491C85.521 75.5491 84.82 74.8451 84.82 73.9811C84.819 73.1141 85.521 72.4121 86.388 72.4121ZM78.098 56.4681C78.965 56.4681 79.667 57.1711 79.667 58.0381C79.667 58.9041 78.965 59.6071 78.098 59.6071C77.231 59.6071 76.53 58.9041 76.53 58.0381C76.529 57.1701 77.231 56.4681 78.098 56.4681ZM78.098 60.5071C78.965 60.5071 79.667 61.2101 79.667 62.0751C79.667 62.9421 78.965 63.6441 78.098 63.6441C77.231 63.6441 76.53 62.9421 76.53 62.0751C76.529 61.2101 77.231 60.5071 78.098 60.5071ZM78.098 64.5461C78.965 64.5461 79.667 65.2481 79.667 66.1151C79.667 66.9811 78.965 67.6841 78.098 67.6841C77.231 67.6841 76.53 66.9811 76.53 66.1151C76.529 65.2481 77.231 64.5461 78.098 64.5461ZM78.098 68.4271C78.965 68.4271 79.667 69.1281 79.667 69.9951C79.667 70.8601 78.965 71.5641 78.098 71.5641C77.231 71.5641 76.53 70.8601 76.53 69.9951C76.529 69.1281 77.231 68.4271 78.098 68.4271ZM78.098 72.4121C78.965 72.4121 79.667 73.1141 79.667 73.9811C79.667 74.8461 78.965 75.5491 78.098 75.5491C77.231 75.5491 76.53 74.8451 76.53 73.9811C76.529 73.1141 77.231 72.4121 78.098 72.4121ZM74.059 60.5071C74.926 60.5071 75.627 61.2101 75.627 62.0751C75.627 62.9421 74.926 63.6441 74.059 63.6441C73.192 63.6441 72.49 62.9421 72.49 62.0751C72.49 61.2101 73.191 60.5071 74.059 60.5071ZM65.557 60.2951C66.422 60.2951 67.126 60.9981 67.126 61.8631C67.126 62.7301 66.422 63.4321 65.557 63.4321C64.69 63.4321 63.986 62.7291 63.986 61.8631C63.986 60.9981 64.689 60.2951 65.557 60.2951ZM65.557 64.3331C66.422 64.3331 67.126 65.0361 67.126 65.9031C67.126 66.7691 66.422 67.4731 65.557 67.4731C64.69 67.4731 63.986 66.7691 63.986 65.9031C63.986 65.0361 64.689 64.3331 65.557 64.3331ZM61.518 56.2551C62.383 56.2551 63.086 56.9581 63.086 57.8251C63.086 58.6911 62.382 59.3931 61.518 59.3931C60.651 59.3931 59.949 58.6901 59.949 57.8251C59.949 56.9581 60.65 56.2551 61.518 56.2551ZM61.518 60.2951C62.383 60.2951 63.086 60.9981 63.086 61.8631C63.086 62.7301 62.382 63.4321 61.518 63.4321C60.651 63.4321 59.949 62.7291 59.949 61.8631C59.949 60.9981 60.65 60.2951 61.518 60.2951ZM61.518 64.3331C62.383 64.3331 63.086 65.0361 63.086 65.9031C63.086 66.7691 62.382 67.4731 61.518 67.4731C60.651 67.4731 59.949 66.7691 59.949 65.9031C59.949 65.0361 60.65 64.3331 61.518 64.3331ZM61.518 68.3731C62.383 68.3731 63.086 69.0771 63.086 69.9421C63.086 70.8091 62.382 71.5101 61.518 71.5101C60.651 71.5101 59.949 70.8091 59.949 69.9421C59.949 69.0761 60.65 68.3731 61.518 68.3731ZM57.264 60.2951C58.131 60.2951 58.833 60.9981 58.833 61.8631C58.833 62.7301 58.131 63.4321 57.264 63.4321C56.397 63.4321 55.696 62.7291 55.696 61.8631C55.696 60.9981 56.397 60.2951 57.264 60.2951ZM57.264 64.3331C58.131 64.3331 58.833 65.0361 58.833 65.9031C58.833 66.7691 58.131 67.4731 57.264 67.4731C56.397 67.4731 55.696 66.7691 55.696 65.9031C55.696 65.0361 56.397 64.3331 57.264 64.3331ZM57.264 68.3731C58.131 68.3731 58.833 69.0771 58.833 69.9421C58.833 70.8091 58.131 71.5101 57.264 71.5101C56.397 71.5101 55.696 70.8091 55.696 69.9421C55.696 69.0761 56.397 68.3731 57.264 68.3731ZM57.264 72.4121C58.131 72.4121 58.833 73.1141 58.833 73.9811C58.833 74.8461 58.131 75.5491 57.264 75.5491C56.397 75.5491 55.696 74.8451 55.696 73.9811C55.696 73.1141 56.397 72.4121 57.264 72.4121ZM52.8 56.2551C53.667 56.2551 54.371 56.9581 54.371 57.8251C54.371 58.6911 53.667 59.3931 52.8 59.3931C51.935 59.3931 51.231 58.6901 51.231 57.8251C51.231 56.9581 51.935 56.2551 52.8 56.2551ZM52.8 60.2951C53.667 60.2951 54.371 60.9981 54.371 61.8631C54.371 62.7301 53.667 63.4321 52.8 63.4321C51.935 63.4321 51.231 62.7291 51.231 61.8631C51.231 60.9981 51.935 60.2951 52.8 60.2951ZM52.8 64.3331C53.667 64.3331 54.371 65.0361 54.371 65.9031C54.371 66.7691 53.667 67.4731 52.8 67.4731C51.935 67.4731 51.231 66.7691 51.231 65.9031C51.231 65.0361 51.935 64.3331 52.8 64.3331ZM52.8 68.3731C53.667 68.3731 54.371 69.0771 54.371 69.9421C54.371 70.8091 53.667 71.5101 52.8 71.5101C51.935 71.5101 51.231 70.8091 51.231 69.9421C51.231 69.0761 51.935 68.3731 52.8 68.3731ZM48.763 60.2951C49.628 60.2951 50.332 60.9981 50.332 61.8631C50.332 62.7301 49.628 63.4321 48.763 63.4321C47.896 63.4321 47.194 62.7291 47.194 61.8631C47.194 60.9981 47.896 60.2951 48.763 60.2951ZM48.763 64.3331C49.628 64.3331 50.332 65.0361 50.332 65.9031C50.332 66.7691 49.628 67.4731 48.763 67.4731C47.896 67.4731 47.194 66.7691 47.194 65.9031C47.194 65.0361 47.896 64.3331 48.763 64.3331Z" fill="#363636"/>
</svg>
