<svg width="153" height="44" viewBox="0 0 153 44" fill="none" xmlns="http://www.w3.org/2000/svg">
<g filter="url(#filter0_d_23402_1086)">
<path d="M31.2 0V35.3H23.6V32.9C21.9 34.8 19.5 36 16.1 36C9.5 36 4 30.2 4 22.7C4 15.2 9.5 9.4 16.1 9.4C19.5 9.4 22 10.6 23.6 12.5V0H31.2ZM23.6 22.7C23.6 18.9 21.1 16.5 17.6 16.5C14.1 16.5 11.6 18.9 11.6 22.7C11.6 26.5 14.1 28.9 17.6 28.9C21.1 28.8 23.6 26.5 23.6 22.7Z" fill="#FFC700"/>
<path d="M47.7 29.1999C49.8 29.1999 51.5 28.3999 52.5 27.2999L58.6 30.7999C56.1 34.1999 52.4 35.9999 47.6 35.9999C39 35.9999 33.6 30.1999 33.6 22.6999C33.6 15.1999 39 9.3999 47 9.3999C54.4 9.3999 59.8 15.0999 59.8 22.6999C59.8 23.7999 59.7 24.7999 59.5 25.6999H41.6C42.6 28.2999 44.9 29.1999 47.7 29.1999ZM52.3 20.0999C51.5 17.1999 49.2 16.0999 46.9 16.0999C44 16.0999 42.1 17.4999 41.4 20.0999H52.3Z" fill="#FFC700"/>
<path d="M86.1 10.1001L76.8 35.3001H68.2L58.9 10.1001H67.3L72.6 26.1001L77.9 10.1001C77.9 10.1001 86.1 10.1001 86.1 10.1001Z" fill="#FFC700"/>
<path d="M87.4 10.1001H95V35.3001H87.4V10.1001Z" fill="#FFC700"/>
<path d="M97.6 22.6999C97.6 15.1999 103.3 9.3999 111 9.3999C115.9 9.3999 120.2 11.9999 122.4 15.8999L115.8 19.6999C114.9 17.8999 113.1 16.8999 110.9 16.8999C107.6 16.8999 105.2 19.2999 105.2 22.6999C105.2 26.1999 107.6 28.4999 110.9 28.4999C113.1 28.4999 115 27.3999 115.8 25.6999L122.4 29.4999C120.3 33.3999 116 35.9999 111 35.9999C103.3 35.9999 97.6 30.1999 97.6 22.6999Z" fill="#FFC700"/>
<path d="M136.8 29.1999C138.9 29.1999 140.6 28.3999 141.6 27.2999L147.7 30.7999C145.2 34.1999 141.5 35.9999 136.7 35.9999C128.1 35.9999 122.7 30.1999 122.7 22.6999C122.7 15.1999 128.2 9.3999 136.1 9.3999C143.5 9.3999 148.9 15.0999 148.9 22.6999C148.9 23.7999 148.8 24.7999 148.6 25.6999H130.7C131.7 28.2999 134 29.1999 136.8 29.1999ZM141.5 20.0999C140.7 17.1999 138.4 16.0999 136.1 16.0999C133.2 16.0999 131.3 17.4999 130.6 20.0999H141.5Z" fill="#FFC700"/>
</g>
<defs>
<filter id="filter0_d_23402_1086" x="0" y="0" width="152.9" height="44" filterUnits="userSpaceOnUse" color-interpolation-filters="sRGB">
<feFlood flood-opacity="0" result="BackgroundImageFix"/>
<feColorMatrix in="SourceAlpha" type="matrix" values="0 0 0 0 0 0 0 0 0 0 0 0 0 0 0 0 0 0 127 0" result="hardAlpha"/>
<feOffset dy="4"/>
<feGaussianBlur stdDeviation="2"/>
<feComposite in2="hardAlpha" operator="out"/>
<feColorMatrix type="matrix" values="0 0 0 0 0 0 0 0 0 0 0 0 0 0 0 0 0 0 0.25 0"/>
<feBlend mode="normal" in2="BackgroundImageFix" result="effect1_dropShadow_23402_1086"/>
<feBlend mode="normal" in="SourceGraphic" in2="effect1_dropShadow_23402_1086" result="shape"/>
</filter>
</defs>
</svg>
