<svg width="161" height="160" viewBox="0 0 161 160" fill="none" xmlns="http://www.w3.org/2000/svg">
<path d="M26.5523 45.2579C21.0074 45.7452 16.3384 46.8507 15.0753 47.9303C14.3526 48.5465 14.3526 48.5465 14.8429 49.0865C15.4874 49.8062 18.5563 50.7315 22.0905 51.3228C26.0885 51.9908 34.6003 52.0162 35.8136 51.3741C37.0255 50.7061 37.4376 49.9605 37.4376 48.3927C37.4376 46.774 36.8185 45.9767 35.2198 45.5402C33.774 45.1543 29.4415 45 26.5523 45.2579Z" fill="#363636"/>
<path d="M40.2745 45.4883C40.1451 45.7715 40.0162 47.5962 40.0162 49.6001C40.0162 53.6611 40.1715 53.3784 37.8243 53.5332L36.7935 53.6103L36.5352 58.6986L35.3487 58.9818C32.7696 59.6498 31.3497 61.577 31.5572 64.2762C31.6851 66.2034 32.588 67.617 34.1358 68.3631C35.2447 68.8763 35.6055 68.9012 45.3819 68.9012C50.9268 68.9012 55.5191 68.9798 55.5704 69.0819C55.6212 69.2103 54.461 78.4891 52.9908 89.7206C51.546 100.951 50.3077 110.718 50.2823 111.387C50.231 113.004 51.1085 114.008 52.63 114.008C53.8673 114.008 54.6417 113.366 54.9513 112.106C55.0807 111.593 56.4469 101.773 57.9694 90.285C59.4914 78.8221 60.8322 69.4163 60.9098 69.4163C61.0128 69.4163 61.9928 70.8294 63.1022 72.552C66.0421 77.178 65.5011 76.8689 70.7375 76.8689H75.0959V82.4987L69.9631 82.5758C65.2429 82.6529 64.7531 82.7028 64.0818 83.191C62.509 84.3482 62.4568 84.606 62.4568 94.1676C62.4568 103.702 62.4832 103.96 63.9793 105.217L64.8304 105.913H96.1956L97.0462 105.217C98.5423 103.96 98.5667 103.702 98.5667 94.1676C98.5667 84.6061 98.5159 84.3483 96.9437 83.191C96.2728 82.7027 95.7826 82.6529 91.0619 82.5758L85.9301 82.4987V76.8689H90.2895C95.5239 76.8689 94.9829 77.178 97.9233 72.552C99.0337 70.8293 100.013 69.4163 100.117 69.4163C100.193 69.4163 101.536 78.8221 103.056 90.285C104.579 101.773 105.946 111.593 106.075 112.106C106.384 113.366 107.157 114.008 108.396 114.008C109.918 114.008 110.795 113.004 110.743 111.387C110.717 110.718 109.479 100.951 108.034 89.7206C106.565 78.4892 105.403 69.2103 105.456 69.0819C105.506 68.9798 110.097 68.9012 115.645 68.9012C125.421 68.9012 125.781 68.8763 126.889 68.3631C128.437 67.617 129.339 66.2034 129.468 64.2762C129.675 61.577 128.257 59.6497 125.677 58.9818L124.49 58.6986L124.234 53.6103L123.202 53.5332C120.855 53.3784 121.008 53.6611 121.008 49.6001C121.008 47.5962 120.88 45.7715 120.752 45.4883C120.545 45.1284 120.209 45 119.384 45C118.765 45 118.146 45.1284 117.964 45.3086C117.758 45.5142 117.655 46.7739 117.655 49.2407C117.655 51.708 117.552 52.9678 117.345 53.1728C117.166 53.3525 116.444 53.4809 115.696 53.4809C114.07 53.4809 114.044 53.5331 114.044 56.5913V58.8784H46.9806V56.5913C46.9806 53.5332 46.9557 53.4809 45.3307 53.4809C44.5822 53.4809 43.8605 53.3525 43.6803 53.1728C43.4728 52.9677 43.3702 51.708 43.3702 49.2407C43.3702 46.7739 43.2672 45.5141 43.0606 45.3086C42.8799 45.1284 42.2603 45 41.6417 45C40.817 45 40.4815 45.1285 40.2745 45.4883ZM83.1173 85.6084C86.006 86.5068 88.5089 89.001 89.2833 91.7764C89.7218 93.3194 89.5929 95.9922 88.9991 97.5596C88.3028 99.4346 86.3145 101.569 84.4337 102.495C83.1437 103.137 82.6798 103.214 80.5128 103.214C78.3463 103.214 77.8819 103.137 76.5924 102.495C74.7081 101.569 72.7233 99.4346 72.0265 97.5596C71.4337 95.9922 71.3038 93.3194 71.7428 91.7764C72.4908 89.0528 74.9923 86.5069 77.8043 85.6084C79.8165 84.9659 81.1046 84.9659 83.1173 85.6084Z" fill="#363636"/>
<path d="M78.294 89.4375C76.2574 90.3633 74.7872 93.0869 75.2252 95.168C75.9991 98.8448 80.0484 100.721 83.2208 98.8701C85.2062 97.7119 86.212 95.3232 85.672 93.0869C85.1036 90.6963 82.9376 88.9492 80.5128 88.9492C79.8673 88.9493 78.8873 89.1807 78.294 89.4375Z" fill="#363636"/>
<path d="M50.5919 45.1543C46.6715 45.8223 46.0787 46.2852 46.0787 48.5981C46.0787 50.4228 46.5426 51.0141 48.3468 51.5537C49.8966 52.0161 55.5192 52.0679 58.8468 51.6821C65.7076 50.8598 70.1686 49.1377 68.5455 47.9301C67.2804 47.0302 63.6432 46.0536 59.4913 45.54C57.0157 45.232 51.4952 45 50.5919 45.1543Z" fill="#363636"/>
<path d="M103.984 45.2579C97.6652 45.8482 92.1202 47.339 92.1202 48.4439C92.1202 50.1661 99.961 51.9136 107.75 51.9395C113.554 51.9395 114.946 51.2974 114.946 48.5982C114.946 46.774 114.327 45.9766 112.573 45.5142C110.924 45.1026 106.898 45 103.984 45.2579Z" fill="#363636"/>
<path d="M127.276 45.2833C125.496 45.5143 124.258 46.0538 123.846 46.774C123.459 47.5445 123.536 49.6778 124 50.3458C124.928 51.6568 125.652 51.8111 131.068 51.8111C134.73 51.8111 136.87 51.6822 138.935 51.3228C142.469 50.7315 145.538 49.8062 146.183 49.0865C146.673 48.5465 146.673 48.5465 145.95 47.9303C144.609 46.7994 139.992 45.7452 134.034 45.2579C130.553 44.9747 129.546 44.9747 127.276 45.2833Z" fill="#363636"/>
</svg>
