<svg width="161" height="160" viewBox="0 0 161 160" fill="none" xmlns="http://www.w3.org/2000/svg">
<path d="M120.321 47.011H40.83C39.069 47.011 37.642 48.438 37.642 50.199V96.612C37.642 98.375 39.069 99.801 40.83 99.801H120.322C122.084 99.801 123.511 98.374 123.511 96.612V50.199C123.511 48.438 122.083 47.011 120.321 47.011ZM45.892 80.236H45.666C43.904 80.236 42.477 78.807 42.477 77.047V69.764C42.477 68.003 43.904 66.576 45.666 66.576H45.892V80.236ZM107.123 95.408H50.841V51.402H107.123V95.408ZM115.9 77.552C113.611 77.552 111.754 75.697 111.754 73.405C111.754 71.113 113.61 69.258 115.9 69.258C118.191 69.258 120.048 71.113 120.048 73.405C120.048 75.697 118.191 77.552 115.9 77.552Z" fill="#363636"/>
<path d="M92.154 43H68.997V45.758H92.154V43Z" fill="#363636"/>
<path d="M84.108 107.861V104.888H92.154V102.13H68.998V104.888H77.043V140.134C74.904 141.072 73.408 143.206 73.408 145.693V160H87.743V145.693C87.743 143.207 86.248 141.072 84.107 140.136V112.146H88.903L93.954 113.359V106.648L88.903 107.861H84.108Z" fill="#363636"/>
</svg>
