<svg width="7" height="11" viewBox="0 0 7 11" fill="none" xmlns="http://www.w3.org/2000/svg">
<path d="M0.399602 10.8889C0.306268 10.8889 0.226935 10.8609 0.161602 10.8049C0.105602 10.7396 0.0776016 10.6602 0.0776016 10.5669V10.1189C0.0776016 10.0349 0.100935 9.94158 0.147602 9.83892C0.194268 9.73625 0.287602 9.62425 0.427602 9.50292L3.3956 6.53492C3.8716 6.13358 4.24494 5.79292 4.5156 5.51292C4.7956 5.22358 4.9916 4.94825 5.1036 4.68692C5.22494 4.42558 5.2856 4.15492 5.2856 3.87492C5.2856 3.34292 5.13627 2.92292 4.8376 2.61492C4.53894 2.29758 4.0956 2.13892 3.5076 2.13892C3.13427 2.13892 2.81227 2.21825 2.5416 2.37692C2.27094 2.52625 2.05627 2.73625 1.8976 3.00692C1.74827 3.26825 1.65027 3.56692 1.6036 3.90292C1.58493 4.02425 1.5336 4.10825 1.4496 4.15492C1.37494 4.20158 1.30494 4.22492 1.2396 4.22492H0.511602C0.427602 4.22492 0.357602 4.20158 0.301602 4.15492C0.245602 4.09892 0.217602 4.03358 0.217602 3.95892C0.226935 3.60425 0.301602 3.24958 0.441602 2.89492C0.581602 2.53092 0.786935 2.20425 1.0576 1.91492C1.3376 1.62558 1.67827 1.39225 2.0796 1.21492C2.49027 1.02825 2.96627 0.934916 3.5076 0.934916C4.24494 0.934916 4.84694 1.07025 5.3136 1.34092C5.7896 1.60225 6.1396 1.95225 6.3636 2.39092C6.5876 2.82958 6.6996 3.31025 6.6996 3.83292C6.6996 4.24358 6.6296 4.62158 6.4896 4.96692C6.3496 5.30292 6.14427 5.63425 5.8736 5.96092C5.61227 6.27825 5.2856 6.60492 4.8936 6.94092L2.2056 9.67092H6.5736C6.67627 9.67092 6.7556 9.69892 6.8116 9.75492C6.87694 9.81092 6.9096 9.89025 6.9096 9.99292V10.5669C6.9096 10.6602 6.87694 10.7396 6.8116 10.8049C6.7556 10.8609 6.67627 10.8889 6.5736 10.8889H0.399602Z" fill="black"/>
</svg>
