<svg width="154" height="160" viewBox="0 0 154 160" fill="none" xmlns="http://www.w3.org/2000/svg">
<path d="M113.631 85.639V73.003C113.631 71.694 114.676 70.633 115.966 70.633L124.292 72.214V64.02C124.292 61.665 122.584 60.589 120.09 59.755L96.9034 53.175C98.5194 54.566 98.7924 55.215 98.7924 57.571V102.78C98.7924 105.136 98.3424 106.846 96.8254 107.99L120.09 100.925C122.491 100.092 124.292 96.709 124.292 94.353V86.44L115.966 88.007C114.676 88.009 113.631 86.947 113.631 85.639Z" fill="#363636"/>
<path d="M124.629 73.979L117.031 72.535C116.023 72.535 115.207 73.364 115.207 74.386V84.254C115.207 85.277 116.023 86.106 117.031 86.106L124.629 84.675C125.783 84.256 126.453 83.846 126.453 82.823V75.83C126.453 74.808 125.687 74.323 124.629 73.979Z" fill="#363636"/>
<path d="M96.6704 57.483C96.6704 52.403 92.4384 53.024 92.4384 53.024C92.4384 53.024 35.3324 57.738 32.3384 58.145C29.3444 58.552 29.5014 62.532 29.5014 62.532C29.5014 62.532 29.5004 95.069 29.5004 98.812C29.5004 102.555 32.0994 102.565 32.0994 102.565L48.5764 103.968L56.7124 92.3C56.7124 92.3 57.8214 90.472 59.2174 90.472C60.6144 90.472 61.6494 92.333 61.6494 92.333L70.7104 105.854C70.7104 105.854 89.6054 107.763 93.2314 107.763C96.8574 107.762 96.6704 102.739 96.6704 102.739C96.6704 102.739 96.6704 62.563 96.6704 57.483ZM42.4824 90.192C38.7844 90.192 35.7864 85.591 35.7864 79.917C35.7864 74.243 38.7844 69.642 42.4824 69.642C46.1804 69.642 49.1784 74.243 49.1784 79.917C49.1784 85.591 46.1804 90.192 42.4824 90.192ZM78.6404 91.618C73.9784 91.618 70.1994 86.379 70.1994 79.917C70.1994 73.454 73.9794 68.215 78.6404 68.215C83.3024 68.215 87.0824 73.454 87.0824 79.917C87.0824 86.379 83.3024 91.618 78.6404 91.618Z" fill="#363636"/>
</svg>
