<svg width="161" height="160" viewBox="0 0 161 160" fill="none" xmlns="http://www.w3.org/2000/svg">
<path d="M106.994 63.197H105.479V58.557C105.479 53.505 101.392 49.371 96.397 49.371H61.582C56.586 49.372 52.5 53.505 52.5 58.557V101.425C52.5 106.477 56.587 110.61 61.583 110.61H96.398C101.393 110.61 105.48 106.477 105.48 101.425V98.01H106.995C107.41 98.01 107.752 97.666 107.752 97.246V83.467C107.752 83.046 107.41 82.701 106.995 82.701H105.48V73.913H106.995C107.827 73.913 108.509 73.225 108.509 72.382V64.728C108.508 63.886 107.826 63.197 106.994 63.197ZM86.582 60.088C89.508 60.088 91.881 62.486 91.881 65.446C91.881 68.406 89.508 70.804 86.582 70.804C83.656 70.804 81.284 68.406 81.284 65.446C81.284 62.486 83.656 60.088 86.582 60.088ZM71.445 60.088C74.37 60.088 76.743 62.486 76.743 65.446C76.743 68.406 74.37 70.804 71.445 70.804C68.519 70.804 66.147 68.406 66.147 65.446C66.147 62.486 68.519 60.088 71.445 60.088ZM57.797 80.397C57.797 77.438 60.168 75.039 63.095 75.039C66.021 75.039 68.393 77.438 68.393 80.397C68.393 83.356 66.02 85.755 63.095 85.755C60.168 85.756 57.797 83.356 57.797 80.397ZM71.445 99.894C68.519 99.894 66.147 97.496 66.147 94.536C66.147 91.576 68.519 89.178 71.445 89.178C74.37 89.178 76.743 91.576 76.743 94.536C76.743 97.496 74.37 99.894 71.445 99.894ZM72.935 79.991C72.935 76.609 75.646 73.867 78.99 73.867C82.334 73.867 85.045 76.609 85.045 79.991C85.045 83.373 82.334 86.115 78.99 86.115C75.646 86.114 72.935 83.373 72.935 79.991ZM86.582 99.894C83.656 99.894 81.284 97.496 81.284 94.536C81.284 91.576 83.656 89.178 86.582 89.178C89.508 89.178 91.881 91.576 91.881 94.536C91.881 97.496 89.508 99.894 86.582 99.894ZM94.884 85.756C91.957 85.756 89.586 83.357 89.586 80.398C89.586 77.439 91.957 75.04 94.884 75.04C97.81 75.04 100.182 77.439 100.182 80.398C100.182 83.356 97.81 85.756 94.884 85.756Z" fill="#363636"/>
<path d="M62.146 46.31H95.833C96.676 46.31 97.265 45.629 97.139 44.796L95.523 34.028C95.523 34.028 95.523 34.027 95.521 34.026C95.271 32.362 93.689 31 92.006 31H65.974C64.288 31 62.706 32.362 62.457 34.028L60.842 44.795C60.717 45.628 61.303 46.31 62.146 46.31Z" fill="#363636"/>
<path d="M95.833 113.671H62.146C61.303 113.671 60.717 114.354 60.842 115.187L62.457 125.954C62.707 127.62 64.289 128.982 65.973 128.982H92.005C93.689 128.982 95.271 127.62 95.522 125.956V125.954L97.137 115.187C97.265 114.354 96.676 113.671 95.833 113.671Z" fill="#363636"/>
</svg>
